<svg width="1em" height="1em" viewBox="0 0 146 29" fill="none" xmlns="http://www.w3.org/2000/svg">
<g clip-path="url(#clip0_7473_1673)">
<path d="M137.689 8.875H132.509L142.114 18.7013L132.509 28.5276H137.689L145.071 20.9848C146.312 19.7157 146.312 17.6912 145.071 16.4221L137.689 8.87935V8.875Z" fill="#FFF9F1"/>
<path d="M8.93103 28.9999C6.44256 28.9999 4.39245 28.3926 2.77854 27.1779C1.16463 25.9632 0.237725 24.3523 0 22.3453H4.24633C4.45788 23.2443 4.96168 24.0171 5.75555 24.6636C6.54942 25.3102 7.5941 25.6345 8.89177 25.6345C10.1894 25.6345 11.088 25.3711 11.6703 24.8421C12.2526 24.3132 12.5427 23.7058 12.5427 23.0201C12.5427 22.0166 12.1392 21.3374 11.3323 20.9804C10.5253 20.6234 9.40648 20.3012 7.97795 20.0095C6.86566 19.7723 5.7621 19.4544 4.66289 19.0583C3.56369 18.6621 2.65205 18.1004 1.92361 17.3755C1.19517 16.6485 0.833127 15.6667 0.833127 14.4237C0.833127 12.7062 1.49396 11.2738 2.8178 10.1245C4.14164 8.97508 5.99328 8.40039 8.37489 8.40039C10.5711 8.40039 12.3508 8.92936 13.7139 9.98514C15.077 11.0409 15.8774 12.5342 16.1151 14.4629H12.0673C11.9342 13.6183 11.5438 12.9565 10.8961 12.482C10.2483 12.0074 9.38031 11.768 8.29637 11.768C7.21243 11.768 6.41638 11.9857 5.83625 12.421C5.25393 12.8564 4.96386 13.418 4.96386 14.1037C4.96386 14.7894 5.36734 15.3315 6.1743 15.7277C6.98125 16.1239 8.04556 16.4809 9.3694 16.7965C10.6932 17.0882 11.9168 17.4234 13.04 17.8066C14.1653 18.1897 15.0704 18.7513 15.7596 19.4893C16.4466 20.2294 16.7912 21.3113 16.7912 22.7371C16.8174 24.533 16.1217 26.0263 14.7062 27.2149C13.2908 28.4035 11.365 28.9978 8.93103 28.9978V28.9999Z" fill="#FFF9F1"/>
<path d="M27.8658 29.0001C25.9334 29.0001 24.2192 28.5713 22.7252 27.7115C21.2291 26.8538 20.0579 25.6587 19.2117 24.1262C18.3655 22.5937 17.9424 20.8108 17.9424 18.7777C17.9424 16.7445 18.3589 14.9094 19.1921 13.3508C20.0252 11.7921 21.1898 10.5775 22.686 9.70672C24.1799 8.83598 25.9203 8.39844 27.905 8.39844C29.8897 8.39844 31.5167 8.82728 32.9452 9.68713C34.3737 10.5448 35.486 11.6877 36.2799 13.1135C37.0738 14.5393 37.4707 16.111 37.4707 17.8286C37.4707 18.092 37.4642 18.3771 37.4511 18.6797C37.438 18.9845 37.4184 19.3197 37.3922 19.6898H22.0709C22.204 21.5923 22.8321 23.0378 23.9575 24.0282C25.0828 25.0187 26.3849 25.5128 27.8679 25.5128C29.0587 25.5128 30.0576 25.2429 30.8646 24.7009C31.6715 24.1588 32.2735 23.4274 32.6704 22.5022H36.8775C36.3475 24.3504 35.2963 25.896 33.7216 27.1368C32.147 28.3776 30.195 28.998 27.8658 28.998V29.0001ZM27.8658 11.8444C26.4634 11.8444 25.2202 12.2602 24.1341 13.0917C23.048 13.9233 22.3872 15.1706 22.1495 16.8359H33.2636C33.1851 15.3034 32.6421 14.0887 31.6366 13.1919C30.6312 12.295 29.375 11.8444 27.8658 11.8444Z" fill="#FFF9F1"/>
<path d="M48.7661 29.0001C46.8338 29.0001 45.1196 28.5713 43.6256 27.7115C42.1295 26.8538 40.9583 25.6587 40.1121 24.1262C39.2659 22.5937 38.8428 20.8108 38.8428 18.7777C38.8428 16.7445 39.2593 14.9094 40.0925 13.3508C40.9256 11.7921 42.0902 10.5775 43.5864 9.70672C45.0803 8.83598 46.8207 8.39844 48.8054 8.39844C50.7901 8.39844 52.4171 8.82728 53.8456 9.68713C55.2741 10.5448 56.3864 11.6877 57.1803 13.1135C57.9741 14.5393 58.3711 16.111 58.3711 17.8286C58.3711 18.092 58.3645 18.3771 58.3515 18.6797C58.3384 18.9845 58.3187 19.3197 58.2926 19.6898H42.9713C43.1044 21.5923 43.7325 23.0378 44.8579 24.0282C45.9832 25.0187 47.2853 25.5128 48.7683 25.5128C49.9591 25.5128 50.958 25.2429 51.765 24.7009C52.5719 24.1588 53.1739 23.4274 53.5708 22.5022H57.7779C57.2479 24.3504 56.1967 25.896 54.622 27.1368C53.0474 28.3776 51.0954 28.998 48.7661 28.998V29.0001ZM48.7661 11.8444C47.3638 11.8444 46.1206 12.2602 45.0345 13.0917C43.9484 13.9233 43.2876 15.1706 43.0498 16.8359H54.164C54.0855 15.3034 53.5424 14.0887 52.537 13.1919C51.5316 12.295 50.2754 11.8444 48.7661 11.8444Z" fill="#FFF9F1"/>
<path d="M60.1206 28.5254V0H64.3277V28.5254H60.1206Z" fill="#FFF9F1"/>
<path d="M86.7957 29.0001C84.9157 29.0001 83.2298 28.5713 81.7337 27.7115C80.2375 26.8538 79.0554 25.6522 78.1809 24.1066C77.3085 22.561 76.8701 20.7586 76.8701 18.6993C76.8701 16.64 77.3129 14.8354 78.2005 13.292C79.086 11.7464 80.2833 10.5448 81.7925 9.68713C83.3018 8.82945 84.9811 8.39844 86.8327 8.39844C88.6844 8.39844 90.3986 8.82728 91.8948 9.68713C93.3887 10.5448 94.5795 11.7464 95.4672 13.292C96.3526 14.8376 96.7975 16.64 96.7975 18.6993C96.7975 20.7586 96.3548 22.561 95.4672 24.1066C94.5795 25.6522 93.3822 26.8538 91.8751 27.7115C90.3681 28.5691 88.6735 29.0001 86.7935 29.0001H86.7957ZM86.7957 25.3953C87.8011 25.3953 88.7345 25.1449 89.5938 24.6421C90.4531 24.1414 91.1489 23.3948 91.6788 22.4043C92.2088 21.4138 92.4727 20.1796 92.4727 18.6993C92.4727 17.219 92.2154 15.9848 91.6985 14.9943C91.1816 14.0038 90.4946 13.2572 89.6353 12.7565C88.776 12.2558 87.8425 12.0033 86.8371 12.0033C85.8317 12.0033 84.8982 12.2536 84.0389 12.7565C83.1796 13.2593 82.4839 14.0038 81.9539 14.9943C81.424 15.9848 81.1601 17.219 81.1601 18.6993C81.1601 20.1796 81.424 21.4138 81.9539 22.4043C82.4839 23.3948 83.1709 24.1414 84.0171 24.6421C84.8633 25.1449 85.7902 25.3953 86.7957 25.3953Z" fill="#FF7D00"/>
<path d="M105.829 29C103.447 29 101.574 28.2599 100.213 26.7818C98.8499 25.3037 98.1694 23.0964 98.1694 20.1663V8.875H102.377V19.731C102.377 23.5339 103.938 25.4365 107.061 25.4365C108.623 25.4365 109.905 24.8814 110.911 23.7734C111.916 22.6632 112.42 21.0784 112.42 19.0191V8.875H116.627V28.5254H112.895L112.577 25.0795C111.968 26.2942 111.074 27.252 109.896 27.9529C108.719 28.6517 107.362 29.0022 105.829 29.0022V29Z" fill="#FF7D00"/>
<path d="M127.682 28.5255C125.75 28.5255 124.214 28.0575 123.078 27.1192C121.94 26.181 121.371 24.5114 121.371 22.1081V12.4016H117.997V8.87506H121.371V3.88354H125.578V8.87506H131.135V12.4016H125.578V22.1081C125.578 23.1922 125.809 23.9367 126.273 24.3459C126.736 24.7552 127.536 24.9598 128.675 24.9598H130.936V28.5255H127.682Z" fill="#FF7D00"/>
<path d="M73.5159 8.92285H78.6957L69.0907 18.7492L78.6957 28.5755H73.5159L66.1334 21.0327C64.8924 19.7636 64.8924 17.7391 66.1334 16.47L73.5159 8.9272V8.92285Z" fill="#FFF9F1"/>
</g>
<defs>
<clipPath id="clip0_7473_1673">
<rect width="146" height="29" fill="white"/>
</clipPath>
</defs>
</svg>
